<svg width="70" height="70" viewBox="0 0 70 70" fill="none" xmlns="http://www.w3.org/2000/svg">
<path fill-rule="evenodd" clip-rule="evenodd" d="M35 70C54.33 70 70 54.33 70 35C70 15.67 54.33 0 35 0C15.67 0 0 15.67 0 35C0 54.33 15.67 70 35 70ZM29.5999 13.4C29.5999 10.4177 32.0176 8 34.9999 8C37.9822 8 40.3999 10.4177 40.3999 13.4V29.6H56.6C59.5823 29.6 62 32.0176 62 35C62 37.9823 59.5823 40.4 56.6 40.4H40.3999V56.6C40.3999 59.5823 37.9822 62 34.9999 62C32.0176 62 29.5999 59.5823 29.5999 56.6V40.4H13.4C10.4176 40.4 8 37.9823 8 35C8 32.0176 10.4176 29.6 13.4 29.6H29.5999V13.4Z" fill="#D9D9D9"/>
</svg>
