<svg width="79" height="79" viewBox="0 0 79 79" fill="none" xmlns="http://www.w3.org/2000/svg">
<path fill-rule="evenodd" clip-rule="evenodd" d="M79 39.5C79 61.3152 61.3152 79 39.5 79C17.6848 79 0 61.3152 0 39.5C0 17.6848 17.6848 0 39.5 0C61.3152 0 79 17.6848 79 39.5ZM70 39C70 56.1208 56.1208 70 39 70C21.8792 70 8 56.1208 8 39C8 21.8792 21.8792 8 39 8C56.1208 8 70 21.8792 70 39Z" fill="#D9D9D9"/>
<rect x="16" y="21.1979" width="7.35099" height="56.6863" rx="3.6755" transform="rotate(-45 16 21.1979)" fill="#D9D9D9"/>
<rect x="56.0833" y="16" width="7.35" height="56.6863" rx="3.675" transform="rotate(45 56.0833 16)" fill="#D9D9D9"/>
</svg>
