<svg width="119" height="70" viewBox="0 0 119 70" fill="none" xmlns="http://www.w3.org/2000/svg">
<path fill-rule="evenodd" clip-rule="evenodd" d="M0 34.9997C7.90978 14.7143 31.437 0 59.2306 0C87.0246 0 110.552 14.7146 118.462 35.0003C110.552 55.2857 87.0245 70 59.2309 70C31.4369 70 7.90956 55.2854 0 34.9997Z" fill="#D2D2D2"/>
<path fill-rule="evenodd" clip-rule="evenodd" d="M107.813 50.852C96.4489 62.5106 78.7916 70 58.9627 70C31.4762 70 8.16237 55.6091 0 35.6707L0.184164 34.4614L107.813 50.852Z" fill="#C0C0C0"/>
<path fill-rule="evenodd" clip-rule="evenodd" d="M33.442 39.5262L83.8501 4.0871C100.286 9.81342 113.041 21.0987 118.461 35.0003C110.552 55.2857 87.0245 70 59.2308 70L59.0967 69.9999C78.8712 69.9662 96.4745 62.4843 107.813 50.852L33.442 39.5262Z" fill="#EFEFEF"/>
<path fill-rule="evenodd" clip-rule="evenodd" d="M59.2308 62.4615C74.1 62.4615 86.1539 50.4076 86.1539 35.5384C86.1539 20.6692 74.1 8.61536 59.2308 8.61536C44.3616 8.61536 32.3077 20.6692 32.3077 35.5384C32.3077 50.4076 44.3616 62.4615 59.2308 62.4615ZM59.2308 46.3077C65.1784 46.3077 70 41.4861 70 35.5384C70 29.5908 65.1784 24.7692 59.2308 24.7692C53.2831 24.7692 48.4615 29.5908 48.4615 35.5384C48.4615 41.4861 53.2831 46.3077 59.2308 46.3077Z" fill="#555555"/>
</svg>
