<svg width="60" height="60" viewBox="0 0 60 60" fill="none" xmlns="http://www.w3.org/2000/svg">
<rect width="60" height="60" fill="#9129A1"/>
<path fill-rule="evenodd" clip-rule="evenodd" d="M8 29.1332C10.9379 21.5986 19.6766 16.1333 30 16.1333C40.3234 16.1333 49.0621 21.5987 52 29.1334C49.0621 36.668 40.3234 42.1333 30 42.1333C19.6766 42.1333 10.9378 36.6679 8 29.1332Z" fill="#48ACB3"/>
<path fill-rule="evenodd" clip-rule="evenodd" d="M48.0448 35.0212C43.8239 39.3515 37.2655 42.1333 29.9005 42.1333C19.6911 42.1333 11.0317 36.7881 8 29.3824L8.06839 28.9333L48.0448 35.0212Z" fill="#3F9499"/>
<path fill-rule="evenodd" clip-rule="evenodd" d="M20.4214 30.8145L39.1444 17.6514C45.2492 19.7783 49.9867 23.97 52 29.1334C49.0621 36.668 40.3234 42.1333 30 42.1333L29.9502 42.1332C37.295 42.1207 43.8334 39.3418 48.0448 35.0212L20.4214 30.8145Z" fill="#90DADF"/>
<path d="M51 27.7333L51.4 28.5333L51.8 29.3333C51.8218 29.3768 51.8876 29.3509 51.8739 29.3043L50 22.9333L48.6 19.7333C47.6682 18.0028 46.5979 16.3506 45.3996 14.7927L45.2 14.5333L44.9236 14.2569C43.6432 12.9765 42.2645 11.7984 40.8 10.7333L38.8 9.33334C36.8036 8.26856 34.7211 7.37368 32.5745 6.65816L32.2 6.53334L30.4 6.13334L28.6 5.93334L25.6 5.73334L24.085 5.84156C23.23 5.90263 22.3819 6.03787 21.5503 6.24577C20.7847 6.43717 20.0356 6.68952 19.3102 7.0004L19 7.13334L18.518 7.3476C17.6409 7.73739 16.7986 8.20097 16 8.73334L15.7839 8.9135C15.1296 9.45867 14.532 10.0684 14 10.7333L13.6583 11.3029C13.4864 11.5894 13.3377 11.8892 13.2136 12.1994L13.1369 12.3912C13.0459 12.6188 12.9759 12.8543 12.9278 13.0947C12.8432 13.5177 12.8273 13.9516 12.8808 14.3796L13 15.3333L13.1125 15.7832C13.1707 16.0159 13.2542 16.2416 13.3614 16.4561C13.5195 16.7722 13.7274 17.0607 13.9773 17.3106L14 17.3333L14.1847 17.518C14.3281 17.6614 14.4815 17.7944 14.6437 17.9161C15.0122 18.1924 15.4228 18.4076 15.8598 18.5533L16.4 18.7333L16.462 18.7488C16.9522 18.8714 17.4556 18.9333 17.9608 18.9333C18.2533 18.9333 18.5453 18.9126 18.8348 18.8712L18.953 18.8543C19.516 18.7739 20.0687 18.6326 20.6012 18.4329L21.4 18.1333L23.4 17.5333L25.4 17.1333L26.8 16.9333L28.6 16.7333H29.8H31.2L32.8 16.9333L34.4 17.1333C35.314 17.3618 36.2586 17.448 37.1725 17.6765L37.4 17.7333L39.4 18.3333L40.8 18.9333L42 19.5333L43.4 20.3333L44.8 21.1333L46.2 22.1333L47.2 22.9333L48 23.7333L48.8 24.5333L49.6 25.5333L50.2 26.5333L51 27.7333Z" fill="#D63BAA"/>
<path d="M8.99995 30.9333L8.59995 30.1333L8.19995 29.3333C8.17823 29.2898 8.11244 29.3157 8.12614 29.3623L9.99995 35.7333L11.4 38.9333C12.3318 40.6638 13.4021 42.316 14.6004 43.8739L14.8 44.1333L15.0764 44.4097C16.3568 45.6901 17.7355 46.8683 19.2 47.9333L21.2 49.3333C23.1964 50.3981 25.2789 51.2929 27.4255 52.0085L27.8 52.1333L29.6 52.5333L31.4 52.7333L34.4 52.9333L35.915 52.8251C36.77 52.764 37.6181 52.6288 38.4497 52.4209C39.2153 52.2295 39.9644 51.9771 40.6898 51.6662L41 51.5333L41.482 51.319C42.3591 50.9292 43.2014 50.4657 44 49.9333L44.2161 49.7531C44.8704 49.208 45.468 48.5983 46 47.9333L46.3417 47.3637C46.5136 47.0772 46.6623 46.7775 46.7864 46.4673L46.8631 46.2754C46.9541 46.0478 47.0241 45.8123 47.0722 45.572C47.1568 45.1489 47.1727 44.7151 47.1192 44.287L47 43.3333L46.8875 42.8834C46.8293 42.6507 46.7458 42.425 46.6386 42.2105C46.4805 41.8944 46.2726 41.6059 46.0227 41.356L46 41.3333L45.8153 41.1486C45.6719 41.0053 45.5185 40.8722 45.3563 40.7506C44.9878 40.4742 44.5772 40.259 44.1402 40.1134L43.6 39.9333L43.538 39.9178C43.0478 39.7953 42.5444 39.7333 42.0392 39.7333C41.7467 39.7333 41.4547 39.754 41.1652 39.7954L41.047 39.8123C40.484 39.8927 39.9313 40.034 39.3988 40.2337L38.6 40.5333L36.6 41.1333L34.6 41.5333L33.2 41.7333L31.4 41.9333H30.2H28.8L27.2 41.7333L25.6 41.5333C24.686 41.3048 23.7414 41.2187 22.8275 40.9902L22.6 40.9333L20.6 40.3333L19.2 39.7333L18 39.1333L16.6 38.3333L15.2 37.5333L13.8 36.5333L12.8 35.7333L12 34.9333L11.2 34.1333L10.4 33.1333L9.79995 32.1333L8.99995 30.9333Z" fill="#D63BAA"/>
<path fill-rule="evenodd" clip-rule="evenodd" d="M30 39.3334C35.5228 39.3334 40 34.8562 40 29.3334C40 23.8105 35.5228 19.3334 30 19.3334C24.4772 19.3334 20 23.8105 20 29.3334C20 34.8562 24.4772 39.3334 30 39.3334ZM30 33.3334C32.2091 33.3334 34 31.5425 34 29.3334C34 27.1243 32.2091 25.3334 30 25.3334C27.7909 25.3334 26 27.1243 26 29.3334C26 31.5425 27.7909 33.3334 30 33.3334Z" fill="white"/>
</svg>
