<svg width="60" height="60" viewBox="0 0 60 60" fill="none" xmlns="http://www.w3.org/2000/svg">
<rect width="60" height="60" fill="white"/>
<path fill-rule="evenodd" clip-rule="evenodd" d="M8 29.4666C10.9379 21.932 19.6766 16.4667 30 16.4667C40.3234 16.4667 49.0621 21.9321 52 29.4668C49.0621 37.0013 40.3234 42.4667 30 42.4667C19.6766 42.4667 10.9378 37.0012 8 29.4666Z" fill="#7BDBE1"/>
<path fill-rule="evenodd" clip-rule="evenodd" d="M48.0448 35.3546C43.8239 39.6849 37.2655 42.4667 29.9005 42.4667C19.6911 42.4667 11.0317 37.1214 8 29.7157L8.06839 29.2667L48.0448 35.3546Z" fill="#5FC0C7"/>
<path fill-rule="evenodd" clip-rule="evenodd" d="M20.4214 31.1478L39.1444 17.9847C45.2492 20.1116 49.9867 24.3033 52 29.4667C49.0621 37.0013 40.3234 42.4666 30.0001 42.4666L29.9559 42.4666C37.2984 42.4527 43.8345 39.674 48.0448 35.3545L20.4214 31.1478Z" fill="#A5E9ED"/>
<path d="M51 28.0667L51.4 28.8667L51.8 29.6667C51.8218 29.7101 51.8876 29.6842 51.8739 29.6376L50 23.2667L48.6 20.0667C47.6682 18.3362 46.5979 16.6839 45.3996 15.1261L45.2 14.8667L44.9236 14.5902C43.6432 13.3098 42.2645 12.1317 40.8 11.0667L38.8 9.66665C36.8036 8.60187 34.7211 7.70699 32.5745 6.99148L32.2 6.86665L30.4 6.46665L28.6 6.26665L25.6 6.06665L24.085 6.17487C23.23 6.23594 22.3819 6.37119 21.5503 6.57908C20.7847 6.77049 20.0356 7.02284 19.3102 7.33371L19 7.46665L18.518 7.68091C17.6409 8.0707 16.7986 8.53428 16 9.06665L15.7839 9.24681C15.1296 9.79199 14.532 10.4017 14 11.0667L13.6583 11.6363C13.4864 11.9227 13.3377 12.2225 13.2136 12.5327L13.1369 12.7245C13.0459 12.9521 12.9759 13.1876 12.9278 13.428C12.8432 13.851 12.8273 14.2849 12.8808 14.7129L13 15.6667L13.1125 16.1165C13.1707 16.3492 13.2542 16.5749 13.3614 16.7895C13.5195 17.1055 13.7274 17.394 13.9773 17.6439L14 17.6667L14.1847 17.8513C14.3281 17.9947 14.4815 18.1277 14.6437 18.2494C15.0122 18.5258 15.4228 18.7409 15.8598 18.8866L16.4 19.0667L16.462 19.0821C16.9522 19.2047 17.4556 19.2667 17.9608 19.2667C18.2533 19.2667 18.5453 19.2459 18.8348 19.2045L18.953 19.1877C19.516 19.1072 20.0687 18.9659 20.6012 18.7662L21.4 18.4667L23.4 17.8667L25.4 17.4667L26.8 17.2667L28.6 17.0667H29.8H31.2L32.8 17.2667L34.4 17.4667C35.314 17.6951 36.2586 17.7813 37.1725 18.0098L37.4 18.0667L39.4 18.6667L40.8 19.2667L42 19.8667L43.4 20.6667L44.8 21.4667L46.2 22.4667L47.2 23.2667L48 24.0667L48.8 24.8667L49.6 25.8667L50.2 26.8667L51 28.0667Z" fill="#FFCFDE"/>
<path d="M8.99995 31.2667L8.59995 30.4667L8.19995 29.6667C8.17823 29.6232 8.11244 29.6491 8.12614 29.6957L9.99995 36.0667L11.4 39.2667C12.3318 40.9972 13.4021 42.6494 14.6004 44.2073L14.8 44.4667L15.0764 44.7431C16.3568 46.0235 17.7355 47.2016 19.2 48.2667L21.2 49.6667C23.1964 50.7314 25.2789 51.6263 27.4255 52.3418L27.8 52.4667L29.6 52.8667L31.4 53.0667L34.4 53.2667L35.915 53.1584C36.77 53.0974 37.6181 52.9621 38.4497 52.7542C39.2153 52.5628 39.9644 52.3105 40.6898 51.9996L41 51.8667L41.482 51.6524C42.3591 51.2626 43.2014 50.799 44 50.2667L44.2161 50.0865C44.8704 49.5413 45.468 48.9316 46 48.2667L46.3417 47.6971C46.5136 47.4106 46.6623 47.1108 46.7864 46.8006L46.8631 46.6088C46.9541 46.3812 47.0241 46.1457 47.0722 45.9053C47.1568 45.4823 47.1727 45.0484 47.1192 44.6204L47 43.6667L46.8875 43.2168C46.8293 42.9841 46.7458 42.7584 46.6386 42.5439C46.4805 42.2278 46.2726 41.9393 46.0227 41.6894L46 41.6667L45.8153 41.482C45.6719 41.3386 45.5185 41.2056 45.3563 41.0839C44.9878 40.8076 44.5772 40.5924 44.1402 40.4467L43.6 40.2667L43.538 40.2512C43.0478 40.1286 42.5444 40.0667 42.0392 40.0667C41.7467 40.0667 41.4547 40.0874 41.1652 40.1288L41.047 40.1457C40.484 40.2261 39.9313 40.3674 39.3988 40.5671L38.6 40.8667L36.6 41.4667L34.6 41.8667L33.2 42.0667L31.4 42.2667H30.2H28.8L27.2 42.0667L25.6 41.8667C24.686 41.6382 23.7414 41.552 22.8275 41.3235L22.6 41.2667L20.6 40.6667L19.2 40.0667L18 39.4667L16.6 38.6667L15.2 37.8667L13.8 36.8667L12.8 36.0667L12 35.2667L11.2 34.4667L10.4 33.4667L9.79995 32.4667L8.99995 31.2667Z" fill="#FFBDD1"/>
<path fill-rule="evenodd" clip-rule="evenodd" d="M30 39.6667C35.5228 39.6667 40 35.1895 40 29.6667C40 24.1438 35.5228 19.6667 30 19.6667C24.4772 19.6667 20 24.1438 20 29.6667C20 35.1895 24.4772 39.6667 30 39.6667ZM30 33.6667C32.2091 33.6667 34 31.8758 34 29.6667C34 27.4575 32.2091 25.6667 30 25.6667C27.7909 25.6667 26 27.4575 26 29.6667C26 31.8758 27.7909 33.6667 30 33.6667Z" fill="white"/>
</svg>
