<svg width="49" height="45" viewBox="0 0 49 45" fill="none" xmlns="http://www.w3.org/2000/svg">
<path fill-rule="evenodd" clip-rule="evenodd" d="M43 9.5C43 14.7467 38.7467 19 33.5 19C28.2533 19 24 14.7467 24 9.5C24 4.25329 28.2533 0 33.5 0C38.7467 0 43 4.25329 43 9.5ZM22.6818 23.8283C15.3598 21.7359 10 14.9939 10 7L0 7C0 10.6114 0.711308 14.1873 2.09331 17.5238C3.47532 20.8602 5.50095 23.8918 8.05456 26.4454C10.6082 28.9991 13.6398 31.0247 16.9762 32.4067L17.0181 32.424C17.0122 32.5182 17.0077 32.6126 17.0047 32.7073H17V33V45H32.9818L33 45L33.0182 45H49V33V32.7073H48.9953C48.8147 27.0464 43.4071 22.3565 36.2535 21.2483C36.2741 21.6832 36.1515 22.1344 35.8517 22.5339L34.5996 24.2021C34.5133 24.3171 34.4178 24.4196 34.315 24.5097L37.129 35.5871C37.1717 35.7553 37.1693 35.9221 37.1304 36.0765C37.5169 36.4516 37.5776 37.125 37.1032 37.5479L33.6655 40.6126C33.2862 40.9507 32.7138 40.9507 32.3345 40.6126L28.8968 37.5479C28.4225 37.125 28.4831 36.4516 28.8696 36.0766C28.8307 35.9222 28.8282 35.7553 28.871 35.5871L31.685 24.5097C31.5822 24.4196 31.4867 24.317 31.4004 24.2021L30.1483 22.5339C29.8485 22.1344 29.7259 21.6832 29.7465 21.2483C27.0919 21.6595 24.6777 22.564 22.6818 23.8283Z" fill="#D9D9D9"/>
</svg>
