<svg width="49" height="45" viewBox="0 0 49 45" fill="none" xmlns="http://www.w3.org/2000/svg">
<path fill-rule="evenodd" clip-rule="evenodd" d="M33.5 19C38.7467 19 43 14.7467 43 9.5C43 4.25329 38.7467 0 33.5 0C28.2533 0 24 4.25329 24 9.5C24 14.7467 28.2533 19 33.5 19ZM10 7C10 14.9939 15.3598 21.7359 22.6818 23.8283C25.4675 22.0637 29.0681 21 33 21C41.7061 21 48.7881 26.2151 48.9953 32.7073H49V33V45H33.0182L33 45L32.9818 45H17V33V32.7073H17.0047C17.0077 32.6126 17.0122 32.5182 17.0181 32.424L16.9762 32.4067C13.6398 31.0247 10.6082 28.9991 8.05456 26.4454C5.50095 23.8918 3.47532 20.8602 2.09331 17.5238C0.711308 14.1873 0 10.6114 0 7L10 7Z" fill="#D9D9D9"/>
</svg>
