<svg width="49" height="45" viewBox="0 0 49 45" fill="none" xmlns="http://www.w3.org/2000/svg">
<path fill-rule="evenodd" clip-rule="evenodd" d="M33.5 19C38.7467 19 43 14.7467 43 9.5C43 4.25329 38.7467 0 33.5 0C28.2533 0 24 4.25329 24 9.5C24 14.7467 28.2533 19 33.5 19ZM11.9135 14.965C14.0993 19.2338 17.9872 22.4867 22.6818 23.8283C24.6777 22.564 27.0919 21.6595 29.7465 21.2483C29.7259 21.6832 29.8485 22.1344 30.1483 22.5339L31.4004 24.2021C31.4867 24.317 31.5822 24.4196 31.685 24.5097L28.871 35.5871C28.8282 35.7553 28.8307 35.9222 28.8696 36.0766C28.4831 36.4516 28.4225 37.125 28.8968 37.5479L32.3345 40.6126C32.7138 40.9507 33.2862 40.9507 33.6655 40.6126L37.1032 37.5479C37.5776 37.125 37.5169 36.4516 37.1304 36.0765C37.1693 35.9221 37.1717 35.7553 37.129 35.5871L34.315 24.5097C34.4178 24.4196 34.5133 24.3171 34.5996 24.2021L35.8517 22.5339C36.1515 22.1344 36.2741 21.6832 36.2535 21.2483C43.4071 22.3565 48.8147 27.0464 48.9953 32.7073H49V33V45H33.0182L33 45L32.9818 45H17V33V32.7073H17.0047C17.0077 32.6126 17.0122 32.5182 17.0181 32.424L16.9762 32.4067C13.6398 31.0247 10.6082 28.9991 8.05456 26.4454C5.71663 24.1075 3.82125 21.3689 2.45719 18.3626L5.4648 17.2819C5.83168 17.7208 6.38324 18 7.00001 18C8.10066 18 8.99365 17.1109 8.99998 16.0118L11.9135 14.965ZM11.2915 13.6103C10.4589 11.5708 10 9.33899 10 7L0 7C0 10.4202 0.637999 13.8087 1.8795 16.992L5.00421 15.8693C5.07154 14.8257 5.93936 14 7.00001 14C7.57396 14 8.09145 14.2418 8.45618 14.629L11.2915 13.6103Z" fill="#D9D9D9"/>
</svg>
