<svg width="68" height="77" viewBox="0 0 68 77" fill="none" xmlns="http://www.w3.org/2000/svg">
<path fill-rule="evenodd" clip-rule="evenodd" d="M40.1006 53.2575C36.438 55.0153 32.334 56 28 56C12.536 56 0 43.464 0 28C0 12.536 12.536 0 28 0C43.464 0 56 12.536 56 28C56 34.4234 53.8371 40.3416 50.1998 45.066C50.2231 45.0954 50.2463 45.125 50.2692 45.1549L66.2596 65.973C68.4463 68.82 67.9111 72.9006 65.0642 75.0874C62.2172 77.2741 58.1366 76.7389 55.9499 73.8919L40.1006 53.2575ZM45 28C45 37.3889 37.3889 45 28 45C18.6111 45 11 37.3889 11 28C11 18.6111 18.6111 11 28 11C37.3889 11 45 18.6111 45 28Z" fill="#D9D9D9"/>
</svg>
