<svg width="60" height="61" viewBox="0 0 60 61" fill="none" xmlns="http://www.w3.org/2000/svg">
<path fill-rule="evenodd" clip-rule="evenodd" d="M20.8909 2.06519H26.9835L24.5149 16.0652H41.4223L43.8909 2.06519H49.9835L47.5149 16.0652H60V22.0652H46.4569L44.1647 35.0652H60V41.0652H43.1067L40.1092 58.0652H34.0166L37.0142 41.0652H20.1067L17.1092 58.0652H11.0166L14.0142 41.0652H0V35.0652H15.0721L17.3644 22.0652H0V16.0652H18.4223L20.8909 2.06519ZM23.4569 22.0652L21.1647 35.0652H38.0721L40.3644 22.0652H23.4569ZM16.3754 60.0652H16.7565L16.745 60.1304L16.3754 60.0652ZM39.7565 60.0652H39.3754L39.745 60.1304L39.7565 60.0652ZM44.2551 0L44.6247 0.0651855H44.2436L44.2551 0ZM21.6247 0.0651855H21.2436L21.2551 0L21.6247 0.0651855Z" fill="#B1B1B1"/>
</svg>
