<svg width="35" height="35" viewBox="0 0 35 35" fill="none" xmlns="http://www.w3.org/2000/svg">
<path fill-rule="evenodd" clip-rule="evenodd" d="M17.5 35C27.165 35 35 27.165 35 17.5C35 7.83502 27.165 0 17.5 0C7.83502 0 0 7.83502 0 17.5C0 27.165 7.83502 35 17.5 35ZM14.7998 6.70005C14.7998 5.20888 16.0086 4.00005 17.4998 4.00005C18.991 4.00005 20.1998 5.20888 20.1998 6.70005V14.8H28.2998C29.7909 14.8 30.9998 16.0088 30.9998 17.5C30.9998 18.9912 29.7909 20.2 28.2998 20.2H20.1998V28.3001C20.1998 29.7912 18.991 31 17.4998 31C16.0086 31 14.7998 29.7912 14.7998 28.3001V20.2H6.69976C5.20859 20.2 3.99976 18.9912 3.99976 17.5C3.99976 16.0088 5.20859 14.8 6.69976 14.8H14.7998V6.70005Z" fill="#D9D9D9"/>
</svg>
