<svg width="60" height="60" viewBox="0 0 60 60" fill="none" xmlns="http://www.w3.org/2000/svg">
<rect width="60" height="60" fill="#D9D9D9"/>
<path d="M16.7934 26V15.536H18.7454L21.5134 21.408L22.4574 23.648H22.5054C22.4734 23.1147 22.42 22.5333 22.3454 21.904C22.2814 21.2747 22.2494 20.6667 22.2494 20.08V15.536H24.0254V26H22.0734L19.3054 20.112L18.3614 17.888H18.3134C18.3454 18.4427 18.3934 19.0293 18.4574 19.648C18.532 20.256 18.5694 20.848 18.5694 21.424V26H16.7934ZM30.0031 26.192C29.1925 26.192 28.4778 25.9787 27.8591 25.552C27.2405 25.1253 26.7551 24.5067 26.4031 23.696C26.0618 22.8853 25.8911 21.8933 25.8911 20.72C25.8911 19.5787 26.0618 18.608 26.4031 17.808C26.7551 16.9973 27.2405 16.384 27.8591 15.968C28.4778 15.552 29.1925 15.344 30.0031 15.344C30.8138 15.344 31.5285 15.552 32.1471 15.968C32.7658 16.384 33.2458 16.9973 33.5871 17.808C33.9391 18.608 34.1151 19.5787 34.1151 20.72C34.1151 21.8933 33.9391 22.8853 33.5871 23.696C33.2458 24.5067 32.7658 25.1253 32.1471 25.552C31.5285 25.9787 30.8138 26.192 30.0031 26.192ZM30.0031 24.576C30.4511 24.576 30.8405 24.4267 31.1711 24.128C31.5018 23.8293 31.7578 23.392 31.9391 22.816C32.1205 22.24 32.2111 21.5413 32.2111 20.72C32.2111 19.92 32.1205 19.2427 31.9391 18.688C31.7578 18.1227 31.5018 17.696 31.1711 17.408C30.8405 17.1093 30.4511 16.96 30.0031 16.96C29.5551 16.96 29.1658 17.1093 28.8351 17.408C28.5045 17.696 28.2485 18.1227 28.0671 18.688C27.8858 19.2427 27.7951 19.92 27.7951 20.72C27.7951 21.5413 27.8858 22.24 28.0671 22.816C28.2485 23.392 28.5045 23.8293 28.8351 24.128C29.1658 24.4267 29.5551 24.576 30.0031 24.576ZM38.6689 26V17.088H35.3729V15.536H43.8209V17.088H40.5249V26H38.6689ZM7.91963 46V35.536H14.6076V37.104H9.77563V40.064H13.8876V41.632H9.77563V46H7.91963ZM20.4094 46.192C19.5987 46.192 18.884 45.9787 18.2654 45.552C17.6467 45.1253 17.1614 44.5067 16.8094 43.696C16.468 42.8853 16.2974 41.8933 16.2974 40.72C16.2974 39.5787 16.468 38.608 16.8094 37.808C17.1614 36.9973 17.6467 36.384 18.2654 35.968C18.884 35.552 19.5987 35.344 20.4094 35.344C21.22 35.344 21.9347 35.552 22.5534 35.968C23.172 36.384 23.652 36.9973 23.9934 37.808C24.3454 38.608 24.5214 39.5787 24.5214 40.72C24.5214 41.8933 24.3454 42.8853 23.9934 43.696C23.652 44.5067 23.172 45.1253 22.5534 45.552C21.9347 45.9787 21.22 46.192 20.4094 46.192ZM20.4094 44.576C20.8574 44.576 21.2467 44.4267 21.5774 44.128C21.908 43.8293 22.164 43.392 22.3454 42.816C22.5267 42.24 22.6174 41.5413 22.6174 40.72C22.6174 39.92 22.5267 39.2427 22.3454 38.688C22.164 38.1227 21.908 37.696 21.5774 37.408C21.2467 37.1093 20.8574 36.96 20.4094 36.96C19.9614 36.96 19.572 37.1093 19.2414 37.408C18.9107 37.696 18.6547 38.1227 18.4734 38.688C18.292 39.2427 18.2014 39.92 18.2014 40.72C18.2014 41.5413 18.292 42.24 18.4734 42.816C18.6547 43.392 18.9107 43.8293 19.2414 44.128C19.572 44.4267 19.9614 44.576 20.4094 44.576ZM30.0191 46.192C29.4431 46.192 28.9258 46.1067 28.4671 45.936C28.0191 45.7653 27.6351 45.5093 27.3151 45.168C27.0058 44.8267 26.7658 44.3947 26.5951 43.872C26.4351 43.3387 26.3551 42.7147 26.3551 42V35.536H28.2111V42.144C28.2111 42.7093 28.2805 43.1733 28.4191 43.536C28.5685 43.888 28.7818 44.1493 29.0591 44.32C29.3365 44.4907 29.6565 44.576 30.0191 44.576C30.4031 44.576 30.7285 44.4907 30.9951 44.32C31.2725 44.1493 31.4858 43.888 31.6351 43.536C31.7951 43.1733 31.8751 42.7093 31.8751 42.144V35.536H33.6511V42C33.6511 42.7147 33.5711 43.3387 33.4111 43.872C33.2511 44.3947 33.0111 44.8267 32.6911 45.168C32.3818 45.5093 32.0031 45.7653 31.5551 45.936C31.1071 46.1067 30.5951 46.192 30.0191 46.192ZM35.9809 46V35.536H37.9329L40.7009 41.408L41.6449 43.648H41.6929C41.6609 43.1147 41.6075 42.5333 41.5329 41.904C41.4689 41.2747 41.4369 40.6667 41.4369 40.08V35.536H43.2129V46H41.2609L38.4929 40.112L37.5489 37.888H37.5009C37.5329 38.4427 37.5809 39.0293 37.6449 39.648C37.7195 40.256 37.7569 40.848 37.7569 41.424V46H35.9809ZM45.6386 46V35.536H48.3906C49.4146 35.536 50.2946 35.728 51.0306 36.112C51.7773 36.496 52.3426 37.072 52.7266 37.84C53.1213 38.608 53.3186 39.568 53.3186 40.72C53.3186 41.8827 53.1213 42.8587 52.7266 43.648C52.3426 44.4267 51.788 45.0133 51.0626 45.408C50.3373 45.8027 49.4786 46 48.4866 46H45.6386ZM47.4946 44.496H48.2786C48.9506 44.496 49.516 44.3627 49.9746 44.096C50.444 43.8187 50.8013 43.4027 51.0466 42.848C51.292 42.2933 51.4146 41.584 51.4146 40.72C51.4146 39.8667 51.292 39.168 51.0466 38.624C50.8013 38.08 50.444 37.68 49.9746 37.424C49.516 37.168 48.9506 37.04 48.2786 37.04H47.4946V44.496Z" fill="#868686"/>
</svg>
