<svg width="60" height="60" viewBox="0 0 60 60" fill="none" xmlns="http://www.w3.org/2000/svg">
<rect width="60" height="60" fill="#202020"/>
<path d="M11.7389 36.25V25.459H13.6694V29.7985H17.3654V25.459H19.2959V36.25H17.3654V31.465H13.6694V36.25H11.7389ZM22.1605 36.25V25.459H29.074V27.076H24.0745V29.8315H28.315V31.4485H24.0745V34.633H29.239V36.25H22.1605ZM32.3345 36.25V25.459H34.232V34.633H39.2975V36.25H32.3345ZM41.7001 36.25V25.459H45.2476C46.0396 25.459 46.7436 25.5635 47.3596 25.7725C47.9756 25.9815 48.4596 26.328 48.8116 26.812C49.1746 27.296 49.3561 27.956 49.3561 28.792C49.3561 29.584 49.1746 30.2385 48.8116 30.7555C48.4596 31.2725 47.9701 31.6575 47.3431 31.9105C46.7271 32.1635 46.0286 32.29 45.2476 32.29H43.6141V36.25H41.7001ZM43.6141 30.7555H45.0991C45.9021 30.7555 46.4961 30.5905 46.8811 30.2605C47.2771 29.9305 47.4751 29.441 47.4751 28.792C47.4751 28.11 47.2716 27.6425 46.8646 27.3895C46.4686 27.1255 45.8801 26.9935 45.0991 26.9935H43.6141V30.7555Z" fill="white"/>
</svg>
