<svg width="42" height="39" viewBox="0 0 42 39" fill="none" xmlns="http://www.w3.org/2000/svg">
<path fill-rule="evenodd" clip-rule="evenodd" d="M28.7142 16.4667C33.2114 16.4667 36.857 12.7805 36.857 8.23333C36.857 3.68619 33.2114 0 28.7142 0C24.217 0 20.5713 3.68619 20.5713 8.23333C20.5713 12.7805 24.217 16.4667 28.7142 16.4667ZM8.57157 6.06667H0C0 9.03082 0.546853 11.9675 1.61099 14.7264L4.28925 13.7534C4.34694 12.8489 5.09079 12.1333 5.99993 12.1333C6.4919 12.1333 6.93547 12.3428 7.24809 12.6785L9.67854 11.7955C8.96488 10.028 8.57157 8.09376 8.57157 6.06667ZM10.2117 12.9695C12.0852 16.6692 15.4177 19.4884 19.4416 20.6512C21.2263 19.5081 23.4012 18.7044 25.7932 18.3713C25.689 18.8901 25.7876 19.457 26.1518 19.9476L26.6797 20.6588C26.8245 20.8539 26.9961 21.0137 27.1846 21.1382L24.7877 30.6785C24.7205 30.9458 24.7674 31.2096 24.893 31.425C24.6075 31.8099 24.6003 32.3898 25.0229 32.7707L27.6161 35.1082C27.9966 35.4512 28.5747 35.4512 28.9552 35.1082L31.5484 32.7707C31.9709 32.3898 31.9638 31.81 31.6784 31.4252C31.8041 31.2097 31.851 30.9459 31.7838 30.6785L29.3868 21.138C29.5753 21.0136 29.7467 20.8539 29.8915 20.6588L30.4194 19.9476C30.7836 19.457 30.8822 18.8901 30.7779 18.3713C37.0561 19.2453 41.8387 23.3615 41.996 28.3463H42V28.6V39H14.5714V28.6V28.3463H14.5754C14.578 28.2643 14.5819 28.1824 14.587 28.1008L14.551 28.0858C11.6912 26.8881 9.09272 25.1325 6.90391 22.9194C4.89996 20.8932 3.27535 18.5197 2.10615 15.9142L4.68405 14.9777C4.99852 15.358 5.47128 15.6 5.99993 15.6C6.94334 15.6 7.70875 14.8294 7.71419 13.8769L10.2117 12.9695Z" fill="#D9D9D9"/>
</svg>
