<svg width="42" height="39" viewBox="0 0 42 39" fill="none" xmlns="http://www.w3.org/2000/svg">
<path fill-rule="evenodd" clip-rule="evenodd" d="M28.7144 16.4667C33.2116 16.4667 36.8573 12.7805 36.8573 8.23333C36.8573 3.68619 33.2116 0 28.7144 0C24.2173 0 20.5716 3.68619 20.5716 8.23333C20.5716 12.7805 24.2173 16.4667 28.7144 16.4667ZM8.57157 6.06665L0 6.06665C0 9.19649 0.609694 12.2957 1.79427 15.1873C2.97884 18.0789 4.7151 20.7062 6.90391 22.9194C9.09272 25.1325 11.6912 26.888 14.551 28.0858L14.5872 28.1009C14.5821 28.1825 14.5783 28.2643 14.5757 28.3464H14.5717V28.6V39H42.0002V28.6V28.3464H41.9962C41.8187 22.7198 35.7483 18.2 28.286 18.2C24.9158 18.2 21.8295 19.1219 19.4418 20.6512C13.1658 18.8378 8.57157 12.9947 8.57157 6.06665Z" fill="#D9D9D9"/>
</svg>
