<svg width="42" height="39" viewBox="0 0 42 39" fill="none" xmlns="http://www.w3.org/2000/svg">
<path fill-rule="evenodd" clip-rule="evenodd" d="M36.857 8.23333C36.857 12.7805 33.2114 16.4667 28.7142 16.4667C24.217 16.4667 20.5713 12.7805 20.5713 8.23333C20.5713 3.68619 24.217 0 28.7142 0C33.2114 0 36.857 3.68619 36.857 8.23333ZM0 6.06667H8.57157C8.57157 12.9946 13.1657 18.8377 19.4416 20.6512C21.2263 19.5081 23.4012 18.7044 25.7932 18.3713C25.689 18.8901 25.7876 19.457 26.1518 19.9476L26.6797 20.6588C26.8245 20.8539 26.9961 21.0137 27.1846 21.1382L24.7877 30.6785C24.7205 30.9458 24.7674 31.2096 24.893 31.425C24.6075 31.8099 24.6003 32.3898 25.0229 32.7707L27.6161 35.1082C27.9966 35.4512 28.5747 35.4512 28.9552 35.1082L31.5484 32.7707C31.9709 32.3898 31.9638 31.81 31.6784 31.4252C31.8041 31.2097 31.851 30.9459 31.7838 30.6785L29.3868 21.138C29.5753 21.0136 29.7467 20.8539 29.8915 20.6588L30.4194 19.9476C30.7836 19.457 30.8822 18.8901 30.7779 18.3713C37.0561 19.2453 41.8387 23.3615 41.996 28.3463H42V28.6V39H14.5714V28.6V28.3463H14.5754C14.578 28.2643 14.5819 28.1824 14.587 28.1008L14.551 28.0858C11.6912 26.8881 9.09272 25.1325 6.90391 22.9194C4.7151 20.7062 2.97884 18.0789 1.79427 15.1873C0.609694 12.2957 0 9.1965 0 6.06667Z" fill="#D9D9D9"/>
</svg>
