<svg width="23" height="23" viewBox="0 0 23 23" fill="none" xmlns="http://www.w3.org/2000/svg">
<path fill-rule="evenodd" clip-rule="evenodd" d="M11.4998 0C10.2296 0 9.19982 1.02974 9.19982 2.3V9.19995H2.3C1.02974 9.19995 0 10.2297 0 11.5C0 12.7702 1.02974 13.8 2.3 13.8H9.19982V20.7C9.19982 21.9703 10.2296 23 11.4998 23C12.7701 23 13.7998 21.9703 13.7998 20.7V13.8H20.7C21.9703 13.8 23 12.7702 23 11.5C23 10.2297 21.9703 9.19995 20.7 9.19995H13.7998V2.3C13.7998 1.02974 12.7701 0 11.4998 0Z" fill="#D9D9D9"/>
</svg>
