<svg width="13" height="15" viewBox="0 0 13 15" fill="none" xmlns="http://www.w3.org/2000/svg">
<path fill-rule="evenodd" clip-rule="evenodd" d="M7.52723 9.98454C6.83972 10.3141 6.06933 10.4988 5.25577 10.4988C2.35309 10.4988 0 8.14853 0 5.24938C0 2.35023 2.35309 0 5.25577 0C8.15846 0 10.5115 2.35023 10.5115 5.24938C10.5115 6.45358 10.1056 7.56308 9.42287 8.4488C9.42736 8.45443 9.43181 8.46011 9.43622 8.46584L12.4372 12.3682C12.8478 12.9021 12.7475 13.6672 12.2131 14.0772C11.6787 14.4872 10.9126 14.3867 10.502 13.8528L7.52723 9.98454ZM8.44671 5.2494C8.44671 7.0096 7.01805 8.43653 5.2557 8.43653C3.49336 8.43653 2.0647 7.0096 2.0647 5.2494C2.0647 3.48921 3.49336 2.06228 5.2557 2.06228C7.01805 2.06228 8.44671 3.48921 8.44671 5.2494Z" fill="#D9D9D9"/>
</svg>
