<svg width="74" height="74" viewBox="0 0 74 74" fill="none" xmlns="http://www.w3.org/2000/svg">
<path fill-rule="evenodd" clip-rule="evenodd" d="M37.0005 0C33.6868 0 31.0005 2.68629 31.0005 6V22.5153L19.6487 11.1635C17.3056 8.82037 13.5066 8.82037 11.1634 11.1635C8.8203 13.5067 8.8203 17.3057 11.1634 19.6488L21.5145 29.9999H6C2.68629 29.9999 0 32.6862 0 35.9999C0 39.3136 2.68629 41.9999 6 41.9999H24.1676L11.1634 55.0041C8.82025 57.3473 8.82025 61.1462 11.1634 63.4894C13.5065 65.8325 17.3055 65.8325 19.6487 63.4894L31.0005 52.1376V68C31.0005 71.3137 33.6868 74 37.0005 74C40.3142 74 43.0005 71.3137 43.0005 68V51.4858L55.0041 63.4894C57.3472 65.8326 61.1462 65.8326 63.4893 63.4894C65.8325 61.1463 65.8325 57.3473 63.4893 55.0041L50.4851 41.9999H68C71.3137 41.9999 74 39.3136 74 35.9999C74 32.6862 71.3137 29.9999 68 29.9999H53.1382L63.4893 19.6488C65.8324 17.3056 65.8324 13.5066 63.4893 11.1635C61.1461 8.82034 57.3472 8.82034 55.004 11.1635L43.0005 23.167V6C43.0005 2.68629 40.3142 0 37.0005 0ZM37.0005 50.0005C44.1802 50.0005 50.0005 44.1803 50.0005 37.0005C50.0005 29.8208 44.1802 24.0005 37.0005 24.0005C29.8208 24.0005 24.0005 29.8208 24.0005 37.0005C24.0005 44.1803 29.8208 50.0005 37.0005 50.0005Z" fill="#D9D9D9"/>
<path fill-rule="evenodd" clip-rule="evenodd" d="M37.5005 62.0005C51.0315 62.0005 62.0005 51.0315 62.0005 37.5005C62.0005 23.9696 51.0315 13.0005 37.5005 13.0005C23.9695 13.0005 13.0005 23.9696 13.0005 37.5005C13.0005 51.0315 23.9695 62.0005 37.5005 62.0005ZM37.0005 50.0005C44.1802 50.0005 50.0005 44.1803 50.0005 37.0005C50.0005 29.8208 44.1802 24.0005 37.0005 24.0005C29.8208 24.0005 24.0005 29.8208 24.0005 37.0005C24.0005 44.1803 29.8208 50.0005 37.0005 50.0005Z" fill="#D9D9D9"/>
</svg>
