<svg width="60" height="61" viewBox="0 0 60 61" fill="none" xmlns="http://www.w3.org/2000/svg">
<rect x="42" y="9.89996" width="17.6" height="12.1" fill="#B1B1B1"/>
<path fill-rule="evenodd" clip-rule="evenodd" d="M50.8184 14.3C50.8133 14.3 50.8081 14.3 50.803 14.3C50.7979 14.3 50.7927 14.3 50.7876 14.3H50.8184ZM57.4059 7.14998C57.4059 3.20115 54.4497 0 50.803 0C47.1563 0 44.2001 3.20115 44.2001 7.14998H46.9558C46.9558 4.71994 48.6795 2.75 50.8058 2.75C52.9321 2.75 54.6558 4.71994 54.6558 7.14998H57.4059Z" fill="#B1B1B1"/>
<rect x="44.2001" y="7.14996" width="2.75" height="2.75" fill="#B1B1B1"/>
<rect x="54.65" y="7.14996" width="2.75" height="2.75" fill="#B1B1B1"/>
<path fill-rule="evenodd" clip-rule="evenodd" d="M26.9835 2.06519H20.8909L18.4223 16.0652H0V22.0652H17.3644L15.0721 35.0652H0V41.0652H14.0142L11.0166 58.0652H17.1092L20.1067 41.0652H37.0142L34.0166 58.0652H40.1092L43.1067 41.0652H60V35.0652H44.1647L45.5385 27.2741C43.4437 26.5703 41.5703 25.3846 40.0499 23.8486L38.0721 35.0652H21.1647L23.4569 22.0652H38.5551C37.3216 20.318 36.4781 18.2757 36.1513 16.0652H24.5149L26.9835 2.06519ZM16.7565 60.0652H16.3754L16.745 60.1304L16.7565 60.0652ZM39.3754 60.0652H39.7565L39.745 60.1304L39.3754 60.0652ZM44.6247 0.0651855L44.2551 0L44.2436 0.0651855H44.6247ZM21.2436 0.0651855H21.6247L21.2551 0L21.2436 0.0651855Z" fill="#B1B1B1"/>
</svg>
